<?xml version="1.0" encoding="UTF-8"?><svg id="Layer_2" xmlns="http://www.w3.org/2000/svg" viewBox="0 0 335.02 337.02"><defs><style>.cls-1{fill:#cdff5c;}</style></defs><g id="Layer_1-2"><g><path class="cls-1" d="M62,42.11C23.59,73,0,115.38,0,168.51c0,29.92,5.8,58.01,19.47,82.37,13.66,24.33,33.17,48.92,56.64,63.87,26.12,16.64,57.14,22.28,90.4,22.28,19.08,0,37.42-3.17,54.52-9.02,.21-.07-5.18-5.98-8.73-11.33-3.97-5.99-6.2-11.76-7.33-17.27l-4.08-27.74-1.19-100.09-3.31-54.77-3.59-45.19S206.68,5.77,207.11,5.34c-12.91-3.46-26.48-5.34-40.6-5.34C126.57,0,90.88,18.89,62,42.11Zm105.51,280.01c-25.2,.78-55.51-2.3-77.99-14.44-29.65-16.07-51.65-48.3-64.31-79.36-6.37-16.63-9.22-34.47-9.39-52.22-.06-2.53,.03-5.06,.07-7.59h.2c.95,43.59,13.7,73.49,41.84,106.49,13.06,15.52,30.79,31.08,50.17,37.27,9.48,3.28,19.36,5.51,29.27,7.04,9.96,1.49,20.03,2.22,30.13,2.61v.2Z"/><path class="cls-1" d="M207.11,5.34h.01s0,0-.01,0h0Z"/><path class="cls-1" d="M299.53,69.67c-22.88-30.58-54.8-54.23-92.41-64.32,.49,.49-7.68,49.04-7.68,49.04l.51,41.11,6.89,63.57,3.83,110.3,5.23,29.49s4.21,10.47,7.15,14.17c2.94,3.7,9.04,10.76,9.25,10.67,25.87-10.98,45.43-30.25,62.76-51.88,23.12-28.85,39.95-63.46,39.95-103.3s-14.46-70.72-35.49-98.84Z"/></g></g></svg>