<svg width="60" height="60" viewBox="0 0 60 60" fill="none" xmlns="http://www.w3.org/2000/svg">
<path d="M24.531 18.0002C20.9342 18.0002 18 20.9344 18 24.5312V33.9761C18 37.566 20.9342 40.5002 24.531 40.5002H33.9758C37.5658 40.5002 40.5 37.5661 40.5 33.9693V24.5312C40.5 20.9344 37.5658 18.0002 33.9691 18.0002H24.531ZM24.531 19.731H33.9691C36.6328 19.731 38.7692 21.8674 38.7692 24.5312V33.9693C38.7692 36.6331 36.6328 38.7695 33.9758 38.7695H24.531C21.8672 38.7695 19.7308 36.6331 19.7308 33.9761V24.5312C19.7308 21.8674 21.8672 19.731 24.531 19.731ZM36.1731 21.4618C35.6931 21.4618 35.3077 21.8471 35.3077 22.3272C35.3077 22.8072 35.6931 23.1926 36.1731 23.1926C36.6531 23.1926 37.0385 22.8072 37.0385 22.3272C37.0385 21.8471 36.6531 21.4618 36.1731 21.4618ZM29.25 23.1926C25.9169 23.1926 23.1923 25.9172 23.1923 29.2502C23.1923 32.5833 25.9169 35.3079 29.25 35.3079C32.5831 35.3079 35.3077 32.5833 35.3077 29.2502C35.3077 25.9172 32.5831 23.1926 29.25 23.1926ZM29.25 24.9233C31.6501 24.9233 33.5769 26.8502 33.5769 29.2502C33.5769 31.6503 31.6501 33.5772 29.25 33.5772C26.8499 33.5772 24.9231 31.6503 24.9231 29.2502C24.9231 26.8502 26.8499 24.9233 29.25 24.9233Z" fill="#CDFF5C"/>
<rect x="0.5" y="0.5" width="59" height="59" rx="0.5" stroke="#CDFF5C"/>
</svg>
