<svg width="60" height="60" viewBox="0 0 60 60" fill="none" xmlns="http://www.w3.org/2000/svg">
<path d="M25.5657 21.9652H31.7085C31.958 21.9652 32.1596 22.1683 32.1596 22.4197V24.3153C32.6587 23.764 33.2922 23.2611 34.0696 22.8549C35.0966 22.3133 36.3732 21.9652 37.8609 21.9652C41.2778 21.9652 43.3222 23.058 44.5124 24.8569C45.6833 26.6267 46.0001 29.0445 46.0001 31.7718V42.5455C46.0001 42.7969 45.7985 43 45.549 43H39.147C38.8975 43 38.6959 42.7969 38.6959 42.5455V32.9903C38.6959 31.8975 38.6863 30.6402 38.2928 29.7021C37.9377 28.8511 37.2274 28.2321 35.8165 28.2321C34.3384 28.2321 33.5033 28.764 33.033 29.5667C32.5339 30.4178 32.4188 31.6073 32.4188 32.8162V42.5358C32.4188 42.7872 32.2172 42.9903 31.9676 42.9903H25.5657C25.3162 42.9903 25.1146 42.7872 25.1146 42.5358V22.4004C25.1146 22.1489 25.3162 21.9458 25.5657 21.9458V21.9652ZM31.2574 22.8743H26.0168V42.1006H31.5069V32.8356C31.5069 31.4816 31.6509 30.147 32.246 29.1219C32.8699 28.0484 33.9544 27.3327 35.8069 27.3327C37.6785 27.3327 38.6287 28.1838 39.1182 29.3636C39.5789 30.4662 39.5885 31.8201 39.5885 33V42.1006H45.0882V31.7814C45.0882 29.2186 44.8003 26.9555 43.7541 25.3694C42.7271 23.8124 40.9227 22.8743 37.8513 22.8743C36.5171 22.8743 35.3846 23.1838 34.4727 23.6673C33.3786 24.2379 32.6107 25.0406 32.1788 25.8143C32.102 25.9497 31.958 26.0464 31.7853 26.0464H31.6989C31.4493 26.0464 31.2478 25.8433 31.2478 25.5919V22.8743H31.2574ZM21.5825 16.8201C21.5825 17.8743 21.1602 18.8221 20.4691 19.5184C19.7877 20.205 18.8374 20.6402 17.7912 20.6402C16.7451 20.6402 15.8044 20.2147 15.1134 19.5184C14.4319 18.8317 14 17.8743 14 16.8201C14 15.766 14.4223 14.8182 15.1134 14.1219C15.7948 13.4352 16.7451 13 17.7912 13C18.8374 13 19.7781 13.4255 20.4691 14.1219C21.1506 14.8085 21.5825 15.766 21.5825 16.8201ZM19.8356 18.8704C20.3539 18.3482 20.6803 17.6228 20.6803 16.8201C20.6803 16.0174 20.3539 15.2921 19.8356 14.7698C19.3173 14.2476 18.5975 13.9188 17.8008 13.9188C17.0042 13.9188 16.2843 14.2476 15.7661 14.7698C15.2478 15.2921 14.9214 16.0174 14.9214 16.8201C14.9214 17.6228 15.2478 18.3482 15.7661 18.8704C16.2843 19.3926 17.0042 19.7215 17.8008 19.7215C18.5975 19.7215 19.3173 19.3926 19.8356 18.8704ZM14.4703 21.9555H21.1314C21.3809 21.9555 21.5825 22.1586 21.5825 22.4101V42.5455C21.5825 42.7969 21.3809 43 21.1314 43H14.4703C14.2208 43 14.0192 42.7969 14.0192 42.5455V22.4101C14.0192 22.1586 14.2208 21.9555 14.4703 21.9555ZM20.6803 22.8646H14.9214V42.0909H20.6803V22.8646Z" fill="#CDFF5C" stroke="#CDFF5C" stroke-width="0.5"/>
<rect x="0.5" y="0.5" width="59" height="59" rx="0.5" stroke="#CDFF5C"/>
</svg>
