<?xml version="1.0" encoding="UTF-8"?><svg id="Layer_2" xmlns="http://www.w3.org/2000/svg" viewBox="0 0 62.31 8.54"><defs><style>.cls-1{fill:#14001e;}</style></defs><g id="Layer_1-2"><g><path class="cls-1" d="M2.72,2.23c1.02,0,1.87,.2,2.39,.42l-.35,2.06h-.02c-.13-1.8-1.14-2.29-2.01-2.29-.8,0-1.3,.24-1.3,.88s.66,.84,1.76,1.07c1.33,.3,2.37,.73,2.39,2.16,.01,1.8-1.78,2.02-2.81,2.02-1.22,0-2.27-.22-2.77-.44l.37-2.48h.02c.04,2.08,1.27,2.72,2.41,2.72,.92,0,1.58-.28,1.58-1.02s-.78-.95-1.8-1.19C1.01,5.78,.17,5.33,.17,4.02c0-1.55,1.66-1.79,2.55-1.79Z"/><path class="cls-1" d="M12.03,2.58c.66,.55,1.07,1.4,1.07,2.55,0,2.25-1.55,3.38-3.57,3.38-.95,0-1.79-.25-2.42-.74l-.49,.53-.16-.14,.49-.52c-.61-.56-.98-1.4-.98-2.51,0-2.24,1.54-3.36,3.56-3.36,.9,0,1.72,.23,2.34,.67l.46-.49,.16,.14-.44,.48Zm-3.97,3.89l2.85-3.03c-.23-.96-.7-1.45-1.39-1.45-1.03,0-1.56,1.07-1.56,3.15,0,.5,.04,.95,.1,1.33Zm3.02-1.33c0-.55-.04-1.04-.11-1.45l-2.88,3.03c.23,1.06,.7,1.6,1.43,1.6,1.04,0,1.56-1.09,1.56-3.18Z"/><path class="cls-1" d="M20.2,4.75c0,2.28-1.87,3.65-4.35,3.65h-1.82V1c0-.46-.19-.78-.9-.97v-.02h2.76V3.08c.41-.54,.94-.86,1.88-.86,1.36,0,2.43,.85,2.43,2.53Zm-4.32,3.44c1.34,0,2.39-1.08,2.39-3.15,0-1.6-.42-2.45-1.22-2.45-.48,0-.85,.29-1.16,.8v4.8Z"/><path class="cls-1" d="M26.08,2.65l-1.16,2.67h-.02c.35-1.85-.02-2.36-.59-2.36-.41,0-.85,.3-1.06,1.45v2.95c0,.53,.37,.72,1.19,1.01v.02h-3.91v-.02c.68-.31,.86-.5,.86-.95V3.33c0-.46-.19-.71-.86-.95v-.02h2.72v1.45c.31-1.2,.97-1.56,1.68-1.56,.46,0,.86,.17,1.15,.4Z"/><path class="cls-1" d="M31.9,5.75c-.17,1.93-1.31,2.79-3.05,2.79s-2.82-1.09-2.82-2.93,1.22-3.39,3.11-3.39c1.18,0,2.34,.6,2.64,2.48h-3.96v.05c0,1.57,.59,2.65,1.94,2.65,.9,0,1.68-.43,2.11-1.65h.02Zm-4.08-1.25h2.18c.05-1.26-.24-2.07-.89-2.07-.71,0-1.24,.77-1.3,2.07Z"/><path class="cls-1" d="M42.7,7.53c0,.41,.2,.61,1.01,.85h-2.99c.9-.24,1.13-.44,1.13-.85v-2.88c0-1.49-.42-2.12-1.36-2.12s-1.56,.59-2,1.66c.01,.13,.02,.28,.02,.43v2.91c0,.41,.2,.61,1.01,.85h-2.87c.8-.24,1.01-.44,1.01-.85v-2.88c0-1.49-.42-2.12-1.36-2.12s-1.54,.58-1.98,1.61v3.39c0,.41,.23,.61,1.13,.85h-2.99c.79-.24,1-.44,1.01-.85V3.26c0-.41-.22-.61-1-.85h1.85v1.4c.47-1.01,1.17-1.55,2.18-1.55,.91,0,1.74,.42,1.96,1.67,.46-1.08,1.17-1.67,2.23-1.67s2,.56,2,2.35v2.91Z"/><path class="cls-1" d="M49.94,6.01c-.28,1.55-1.19,2.52-2.89,2.52s-2.71-1.18-2.71-2.87c0-1.87,1.21-3.39,2.84-3.39,1.09,0,2.24,.67,2.52,2.39h-4.51c-.01,.14-.02,.3-.02,.46,0,1.68,.79,2.79,2.41,2.79,1.17,0,1.92-.73,2.35-1.9h.01Zm-4.74-1.51h3.43c-.01-1.22-.44-2.07-1.45-2.07-1.07,0-1.8,.78-1.98,2.07Z"/><path class="cls-1" d="M52.87,2.29c1.02,0,1.85,.2,2.34,.42l-.35,2.1h-.01c.02-2.1-1.15-2.35-1.98-2.35-1.03,0-1.69,.25-1.69,1.02s.56,1.01,2.01,1.33c1.32,.3,2.39,.65,2.39,1.93,0,1.38-1.22,1.78-2.7,1.78-1.1,0-2.04-.2-2.52-.42l.37-2.48h.01c-.04,2.29,.82,2.75,2.13,2.75,1.22,0,2.07-.31,2.07-1.29,0-.89-.84-1.19-2.17-1.5-1.31-.31-2.24-.64-2.24-1.76s1.15-1.51,2.33-1.51Z"/><path class="cls-1" d="M61.3,7.53c0,.41,.2,.62,1.01,.85h-1.87v-1.22c-.4,.83-1.14,1.34-2.32,1.34-1.08,0-1.73-.55-1.73-1.49,0-2.15,4.02-1.79,4.02-3.67,0-.59-.47-.92-1.19-.92-.97,0-2.11,.38-1.94,2.7h-.01l-.46-2.41c.64-.23,1.42-.44,2.41-.44,.74,0,2.08,.18,2.08,2.15v3.12Zm-.86-.7V3.95c-.5,1.22-3.17,1.28-3.17,2.96,0,.74,.42,1.26,1.31,1.26,.8,0,1.52-.47,1.86-1.33Z"/></g></g></svg>