<svg width="60" height="60" viewBox="0 0 60 60" fill="none" xmlns="http://www.w3.org/2000/svg">
<path d="M0.5 0.999999C0.5 0.723857 0.723857 0.5 1 0.5H59C59.2761 0.5 59.5 0.723858 59.5 1V59C59.5 59.2761 59.2761 59.5 59 59.5H0.999999C0.723857 59.5 0.5 59.2761 0.5 59V0.999999Z" stroke="#CDFF5C"/>
<path fill-rule="evenodd" clip-rule="evenodd" d="M16 22.8853V38.4627H45V22.7903L30.2863 31.8515C29.9514 32.0577 29.5267 32.0485 29.2011 31.8279L16 22.8853ZM43.2228 21.5359H17.5741L29.7878 29.8097L43.2228 21.5359ZM14 20.5359C14 19.9836 14.4477 19.5359 15 19.5359H46C46.5523 19.5359 47 19.9836 47 20.5359V39.4627C47 40.015 46.5523 40.4627 46 40.4627H15C14.4477 40.4627 14 40.015 14 39.4627V20.5359Z" fill="#CDFF5C"/>
</svg>
