<svg width="60" height="60" viewBox="0 0 60 60" fill="none" xmlns="http://www.w3.org/2000/svg">
<rect x="0.5" y="0.5" width="59" height="59" rx="0.5" stroke="#CDFF5C"/>
<path d="M28.5476 16.5668C22.7735 17.3539 18.28 21.5538 17.1815 27.1868C16.6352 30.0122 17.0405 32.8904 18.3621 35.5513L18.8379 36.4968L17.6573 39.9804C17.0052 41.8894 16.4884 43.4694 16.5002 43.4812C16.512 43.4931 18.1566 42.9878 20.1479 42.3533L23.778 41.1962L24.4712 41.5251C27.3084 42.8525 30.4569 43.1757 33.4525 42.4357C38.0519 41.2962 41.7525 37.7248 43.0273 33.1902C43.5618 31.2754 43.6499 28.9961 43.2565 27.0518C42.352 22.5936 39.1682 18.8869 34.8568 17.2834C34.2047 17.0366 33.1415 16.7605 32.3367 16.6197C31.5669 16.4905 29.3406 16.4552 28.5476 16.5668ZM31.8372 18.6871C36.1663 19.2745 39.8435 22.4993 41.0006 26.7287C41.4941 28.5321 41.5175 30.5467 41.0651 32.3325C40.1369 35.986 37.3705 38.9524 33.7754 40.1448C30.7032 41.167 27.2963 40.8143 24.5649 39.1874C24.3122 39.0406 24.0833 38.9172 24.0596 38.9172C24.042 38.9172 23.0785 39.2169 21.9214 39.5869C20.77 39.9512 19.8245 40.233 19.8245 40.2038C19.8245 40.1804 20.13 39.258 20.5058 38.1595L21.1872 36.1624L20.8816 35.7042C20.4998 35.1286 19.8829 33.8773 19.6539 33.2136C17.8629 28.0211 20.23 22.2762 25.1994 19.7622C27.2494 18.7285 29.4758 18.37 31.8372 18.6871Z" fill="#CDFF5C"/>
<path d="M25.2408 23.7681C24.7768 23.9971 24.1366 24.89 23.9015 25.6361C23.8544 25.7829 23.7958 26.1705 23.7781 26.4937C23.7371 27.2456 23.8839 27.8977 24.2892 28.7435C24.5887 29.3662 25.2818 30.4117 25.9692 31.2694C27.1735 32.7789 28.6596 34.0126 30.0694 34.6882C31.1678 35.2111 32.8594 35.769 33.576 35.8453C34.5571 35.9453 36.049 35.2932 36.5719 34.5295C36.9127 34.036 37.1006 32.826 36.8714 32.6147C36.754 32.5089 34.5276 31.4223 34.0871 31.252C33.9345 31.1933 33.7463 31.1639 33.67 31.1876C33.5818 31.2052 33.3529 31.4402 33.0942 31.7631C32.4599 32.5612 32.1486 32.8668 31.9781 32.8668C31.7491 32.8668 30.6094 32.3147 29.9693 31.8918C29.1527 31.3512 28.1014 30.2941 27.5317 29.4422C27.2966 29.0956 27.1087 28.7432 27.1087 28.6669C27.1087 28.5845 27.2614 28.3556 27.5198 28.0561C27.8956 27.6156 28.2246 27.0929 28.2246 26.9282C28.2246 26.8929 27.9543 26.2116 27.6253 25.4126C27.2377 24.4844 26.9674 23.9089 26.8677 23.8031C26.715 23.6505 26.6856 23.6444 26.0982 23.6444C25.599 23.6447 25.4463 23.6681 25.2408 23.7681Z" fill="#CDFF5C"/>
</svg>
